<svg xmlns="http://www.w3.org/2000/svg" width="1920" height="1080"><path d="M241,1282L-116,1326L769,1305Z" fill="#6e6e6e" stroke="#6e6e6e" stroke-width="1.51"/><path d="M769,1305L-116,1326L1197,1335Z" fill="#606060" stroke="#606060" stroke-width="1.51"/><path d="M99,-254L858,-237L1375,-252Z" fill="#d4d4d4" stroke="#d4d4d4" stroke-width="1.51"/><path d="M858,-237L1149,-224L1375,-252Z" fill="#bdbdbd" stroke="#bdbdbd" stroke-width="1.51"/><path d="M99,-254L1375,-252L1643,-260Z" fill="#c3c3c3" stroke="#c3c3c3" stroke-width="1.51"/><path d="M1592,1292L1330,1330L1778,1287Z" fill="#2f2f2f" stroke="#2f2f2f" stroke-width="1.51"/><path d="M1643,-260L1805,-204L1952,-220Z" fill="#8d8d8d" stroke="#8d8d8d" stroke-width="1.51"/><path d="M2031,432L1972,515L2046,572Z" fill="#545454" stroke="#545454" stroke-width="1.51"/><path d="M1982,641L2036,711L2046,572Z" fill="#494949" stroke="#494949" stroke-width="1.51"/><path d="M2046,572L2036,711L2061,813Z" fill="#434343" stroke="#434343" stroke-width="1.51"/><path d="M2034,-89L1969,-11L2077,104Z" fill="#747474" stroke="#747474" stroke-width="1.51"/><path d="M2077,104L1907,211L2080,289Z" fill="#6a6a6a" stroke="#6a6a6a" stroke-width="1.51"/><path d="M2031,432L2046,572L2080,289Z" fill="#585858" stroke="#585858" stroke-width="1.51"/><path d="M2046,572L2061,813L2080,289Z" fill="#4d4d4d" stroke="#4d4d4d" stroke-width="1.51"/><path d="M2061,813L1990,997L2083,1023Z" fill="#313131" stroke="#313131" stroke-width="1.51"/><path d="M2080,289L2061,813L2083,1023Z" fill="#414141" stroke="#414141" stroke-width="1.51"/><path d="M1950,1276L1778,1287L2086,1283Z" fill="#181818" stroke="#181818" stroke-width="1.51"/><path d="M1778,1287L1330,1330L2086,1283Z" fill="#242424" stroke="#242424" stroke-width="1.51"/><path d="M1643,-260L1952,-220L2088,-245Z" fill="#868686" stroke="#868686" stroke-width="1.51"/><path d="M1952,-220L2034,-89L2088,-245Z" fill="#7c7c7c" stroke="#7c7c7c" stroke-width="1.51"/><path d="M2034,-89L2077,104L2088,-245Z" fill="#767676" stroke="#767676" stroke-width="1.51"/><path d="M2077,104L2080,289L2088,-245Z" fill="#6f6f6f" stroke="#6f6f6f" stroke-width="1.51"/><path d="M2083,1023L1990,997L2099,1132Z" fill="#262626" stroke="#262626" stroke-width="1.51"/><path d="M1990,997L1881,1155L2099,1132Z" fill="#252525" stroke="#252525" stroke-width="1.51"/><path d="M1881,1155L1950,1276L2099,1132Z" fill="#1d1d1d" stroke="#1d1d1d" stroke-width="1.51"/><path d="M2080,289L2083,1023L2099,1132Z" fill="#393939" stroke="#393939" stroke-width="1.51"/><path d="M1950,1276L2086,1283L2099,1132Z" fill="#171717" stroke="#171717" stroke-width="1.51"/><path d="M2088,-245L2080,289L2099,1132Z" fill="#595959" stroke="#595959" stroke-width="1.51"/><path d="M1945,799L1990,997L2061,813Z" fill="#393939" stroke="#393939" stroke-width="1.51"/><path d="M1888,382L2031,432L2080,289Z" fill="#606060" stroke="#606060" stroke-width="1.51"/><path d="M1907,211L1888,382L2080,289Z" fill="#686868" stroke="#686868" stroke-width="1.51"/><path d="M1969,-11L1896,53L2077,104Z" fill="#757575" stroke="#757575" stroke-width="1.51"/><path d="M1896,53L1907,211L2077,104Z" fill="#737373" stroke="#737373" stroke-width="1.51"/><path d="M2036,711L1945,799L2061,813Z" fill="#3f3f3f" stroke="#3f3f3f" stroke-width="1.51"/><path d="M1972,515L1982,641L2046,572Z" fill="#4f4f4f" stroke="#4f4f4f" stroke-width="1.51"/><path d="M1952,-220L1969,-11L2034,-89Z" fill="#7c7c7c" stroke="#7c7c7c" stroke-width="1.51"/><path d="M1982,641L1945,799L2036,711Z" fill="#454545" stroke="#454545" stroke-width="1.51"/><path d="M1945,799L1809,884L1990,997Z" fill="#3c3c3c" stroke="#3c3c3c" stroke-width="1.51"/><path d="M1888,382L1972,515L2031,432Z" fill="#5d5d5d" stroke="#5d5d5d" stroke-width="1.51"/><path d="M1805,-204L1743,-22L1969,-11Z" fill="#858585" stroke="#858585" stroke-width="1.51"/><path d="M1952,-220L1805,-204L1969,-11Z" fill="#828282" stroke="#828282" stroke-width="1.51"/><path d="M1972,515L1832,701L1982,641Z" fill="#505050" stroke="#505050" stroke-width="1.51"/><path d="M1832,701L1945,799L1982,641Z" fill="#494949" stroke="#494949" stroke-width="1.51"/><path d="M1791,1042L1881,1155L1990,997Z" fill="#2d2d2d" stroke="#2d2d2d" stroke-width="1.51"/><path d="M1809,884L1791,1042L1990,997Z" fill="#383838" stroke="#383838" stroke-width="1.51"/><path d="M99,-254L474,-196L858,-237Z" fill="#e4e4e4" stroke="#e4e4e4" stroke-width="1.51"/><path d="M1729,535L1832,701L1972,515Z" fill="#585858" stroke="#585858" stroke-width="1.51"/><path d="M1822,246L1888,382L1907,211Z" fill="#6f6f6f" stroke="#6f6f6f" stroke-width="1.51"/><path d="M1743,-22L1896,53L1969,-11Z" fill="#7e7e7e" stroke="#7e7e7e" stroke-width="1.51"/><path d="M1888,382L1729,535L1972,515Z" fill="#606060" stroke="#606060" stroke-width="1.51"/><path d="M1896,53L1804,102L1907,211Z" fill="#787878" stroke="#787878" stroke-width="1.51"/><path d="M1881,1155L1778,1287L1950,1276Z" fill="#1e1e1e" stroke="#1e1e1e" stroke-width="1.51"/><path d="M1832,701L1809,884L1945,799Z" fill="#474747" stroke="#474747" stroke-width="1.51"/><path d="M1782,1187L1778,1287L1881,1155Z" fill="#252525" stroke="#252525" stroke-width="1.51"/><path d="M1738,403L1729,535L1888,382Z" fill="#696969" stroke="#696969" stroke-width="1.51"/><path d="M1804,102L1822,246L1907,211Z" fill="#767676" stroke="#767676" stroke-width="1.51"/><path d="M1822,246L1738,403L1888,382Z" fill="#6f6f6f" stroke="#6f6f6f" stroke-width="1.51"/><path d="M1743,-22L1804,102L1896,53Z" fill="#808080" stroke="#808080" stroke-width="1.51"/><path d="M1791,1042L1782,1187L1881,1155Z" fill="#2b2b2b" stroke="#2b2b2b" stroke-width="1.51"/><path d="M592,1275L241,1282L769,1305Z" fill="#666666" stroke="#666666" stroke-width="1.51"/><path d="M1638,986L1791,1042L1809,884Z" fill="#414141" stroke="#414141" stroke-width="1.51"/><path d="M1804,102L1617,213L1822,246Z" fill="#7f7f7f" stroke="#7f7f7f" stroke-width="1.51"/><path d="M1729,535L1582,651L1832,701Z" fill="#5f5f5f" stroke="#5f5f5f" stroke-width="1.51"/><path d="M1595,884L1809,884L1832,701Z" fill="#4d4d4d" stroke="#4d4d4d" stroke-width="1.51"/><path d="M1582,651L1595,884L1832,701Z" fill="#595959" stroke="#595959" stroke-width="1.51"/><path d="M1642,378L1738,403L1822,246Z" fill="#767676" stroke="#767676" stroke-width="1.51"/><path d="M1617,213L1642,378L1822,246Z" fill="#7d7d7d" stroke="#7d7d7d" stroke-width="1.51"/><path d="M1619,1114L1782,1187L1791,1042Z" fill="#333333" stroke="#333333" stroke-width="1.51"/><path d="M1643,-260L1743,-22L1805,-204Z" fill="#919191" stroke="#919191" stroke-width="1.51"/><path d="M1595,884L1638,986L1809,884Z" fill="#4b4b4b" stroke="#4b4b4b" stroke-width="1.51"/><path d="M1743,-22L1608,45L1804,102Z" fill="#8a8a8a" stroke="#8a8a8a" stroke-width="1.51"/><path d="M1608,45L1617,213L1804,102Z" fill="#898989" stroke="#898989" stroke-width="1.51"/><path d="M1643,-260L1592,-21L1743,-22Z" fill="#959595" stroke="#959595" stroke-width="1.51"/><path d="M1592,1292L1778,1287L1782,1187Z" fill="#282828" stroke="#282828" stroke-width="1.51"/><path d="M1638,986L1619,1114L1791,1042Z" fill="#3e3e3e" stroke="#3e3e3e" stroke-width="1.51"/><path d="M1619,1114L1592,1292L1782,1187Z" fill="#303030" stroke="#303030" stroke-width="1.51"/><path d="M1650,503L1729,535L1738,403Z" fill="#6c6c6c" stroke="#6c6c6c" stroke-width="1.51"/><path d="M1435,1282L1330,1330L1592,1292Z" fill="#353535" stroke="#353535" stroke-width="1.51"/><path d="M1650,503L1582,651L1729,535Z" fill="#696969" stroke="#696969" stroke-width="1.51"/><path d="M1642,378L1650,503L1738,403Z" fill="#737373" stroke="#737373" stroke-width="1.51"/><path d="M1592,-21L1608,45L1743,-22Z" fill="#919191" stroke="#919191" stroke-width="1.51"/><path d="M1582,651L1534,672L1595,884Z" fill="#626262" stroke="#626262" stroke-width="1.51"/><path d="M1534,672L1491,806L1595,884Z" fill="#606060" stroke="#606060" stroke-width="1.51"/><path d="M1608,45L1501,120L1617,213Z" fill="#919191" stroke="#919191" stroke-width="1.51"/><path d="M1534,1155L1592,1292L1619,1114Z" fill="#373737" stroke="#373737" stroke-width="1.51"/><path d="M1516,1005L1619,1114L1638,986Z" fill="#464646" stroke="#464646" stroke-width="1.51"/><path d="M1617,213L1503,210L1642,378Z" fill="#888888" stroke="#888888" stroke-width="1.51"/><path d="M1503,210L1457,364L1642,378Z" fill="#888888" stroke="#888888" stroke-width="1.51"/><path d="M1375,-252L1487,-178L1643,-260Z" fill="#a6a6a6" stroke="#a6a6a6" stroke-width="1.51"/><path d="M1487,-178L1592,-21L1643,-260Z" fill="#9e9e9e" stroke="#9e9e9e" stroke-width="1.51"/><path d="M1436,523L1582,651L1650,503Z" fill="#727272" stroke="#727272" stroke-width="1.51"/><path d="M1642,378L1457,364L1650,503Z" fill="#7c7c7c" stroke="#7c7c7c" stroke-width="1.51"/><path d="M1457,364L1436,523L1650,503Z" fill="#7c7c7c" stroke="#7c7c7c" stroke-width="1.51"/><path d="M1595,884L1516,1005L1638,986Z" fill="#4f4f4f" stroke="#4f4f4f" stroke-width="1.51"/><path d="M1487,-178L1436,-62L1592,-21Z" fill="#a1a1a1" stroke="#a1a1a1" stroke-width="1.51"/><path d="M1501,120L1503,210L1617,213Z" fill="#909090" stroke="#909090" stroke-width="1.51"/><path d="M1516,1005L1534,1155L1619,1114Z" fill="#424242" stroke="#424242" stroke-width="1.51"/><path d="M1436,523L1534,672L1582,651Z" fill="#6f6f6f" stroke="#6f6f6f" stroke-width="1.51"/><path d="M1592,-21L1501,120L1608,45Z" fill="#969696" stroke="#969696" stroke-width="1.51"/><path d="M1436,-62L1501,120L1592,-21Z" fill="#9b9b9b" stroke="#9b9b9b" stroke-width="1.51"/><path d="M1534,1155L1435,1282L1592,1292Z" fill="#363636" stroke="#363636" stroke-width="1.51"/><path d="M1491,806L1516,1005L1595,884Z" fill="#575757" stroke="#575757" stroke-width="1.51"/><path d="M1491,806L1390,878L1516,1005Z" fill="#5b5b5b" stroke="#5b5b5b" stroke-width="1.51"/><path d="M862,1285L769,1305L1197,1335Z" fill="#4f4f4f" stroke="#4f4f4f" stroke-width="1.51"/><path d="M1361,567L1350,644L1436,523Z" fill="#7a7a7a" stroke="#7a7a7a" stroke-width="1.51"/><path d="M1436,-62L1365,52L1501,120Z" fill="#9f9f9f" stroke="#9f9f9f" stroke-width="1.51"/><path d="M1350,644L1491,806L1534,672Z" fill="#6b6b6b" stroke="#6b6b6b" stroke-width="1.51"/><path d="M1436,523L1350,644L1534,672Z" fill="#747474" stroke="#747474" stroke-width="1.51"/><path d="M1516,1005L1366,1182L1534,1155Z" fill="#444444" stroke="#444444" stroke-width="1.51"/><path d="M1366,1182L1435,1282L1534,1155Z" fill="#3d3d3d" stroke="#3d3d3d" stroke-width="1.51"/><path d="M1359,263L1457,364L1503,210Z" fill="#909090" stroke="#909090" stroke-width="1.51"/><path d="M1390,878L1310,1000L1516,1005Z" fill="#595959" stroke="#595959" stroke-width="1.51"/><path d="M1310,1000L1366,1182L1516,1005Z" fill="#4e4e4e" stroke="#4e4e4e" stroke-width="1.51"/><path d="M1365,52L1359,263L1501,120Z" fill="#9a9a9a" stroke="#9a9a9a" stroke-width="1.51"/><path d="M1501,120L1359,263L1503,210Z" fill="#949494" stroke="#949494" stroke-width="1.51"/><path d="M1339,395L1436,523L1457,364Z" fill="#868686" stroke="#868686" stroke-width="1.51"/><path d="M1350,644L1390,878L1491,806Z" fill="#686868" stroke="#686868" stroke-width="1.51"/><path d="M1375,-252L1436,-62L1487,-178Z" fill="#a8a8a8" stroke="#a8a8a8" stroke-width="1.51"/><path d="M1375,-252L1339,-43L1436,-62Z" fill="#a9a9a9" stroke="#a9a9a9" stroke-width="1.51"/><path d="M1339,-43L1365,52L1436,-62Z" fill="#a5a5a5" stroke="#a5a5a5" stroke-width="1.51"/><path d="M1359,263L1339,395L1457,364Z" fill="#8f8f8f" stroke="#8f8f8f" stroke-width="1.51"/><path d="M1238,146L1359,263L1365,52Z" fill="#9f9f9f" stroke="#9f9f9f" stroke-width="1.51"/><path d="M1350,644L1170,810L1390,878Z" fill="#6e6e6e" stroke="#6e6e6e" stroke-width="1.51"/><path d="M1366,1182L1330,1330L1435,1282Z" fill="#3c3c3c" stroke="#3c3c3c" stroke-width="1.51"/><path d="M1339,395L1361,567L1436,523Z" fill="#818181" stroke="#818181" stroke-width="1.51"/><path d="M1149,-224L1182,-40L1339,-43Z" fill="#b3b3b3" stroke="#b3b3b3" stroke-width="1.51"/><path d="M1183,673L1170,810L1350,644Z" fill="#777777" stroke="#777777" stroke-width="1.51"/><path d="M1310,1000L1160,1123L1366,1182Z" fill="#505050" stroke="#505050" stroke-width="1.51"/><path d="M1149,-224L1339,-43L1375,-252Z" fill="#b1b1b1" stroke="#b1b1b1" stroke-width="1.51"/><path d="M1226,954L1310,1000L1390,878Z" fill="#606060" stroke="#606060" stroke-width="1.51"/><path d="M1170,810L1226,954L1390,878Z" fill="#686868" stroke="#686868" stroke-width="1.51"/><path d="M1238,146L1209,239L1359,263Z" fill="#9e9e9e" stroke="#9e9e9e" stroke-width="1.51"/><path d="M1339,395L1176,574L1361,567Z" fill="#858585" stroke="#858585" stroke-width="1.51"/><path d="M1197,1335L1330,1330L1366,1182Z" fill="#3e3e3e" stroke="#3e3e3e" stroke-width="1.51"/><path d="M1141,431L1176,574L1339,395Z" fill="#8e8e8e" stroke="#8e8e8e" stroke-width="1.51"/><path d="M1209,239L1339,395L1359,263Z" fill="#979797" stroke="#979797" stroke-width="1.51"/><path d="M1339,-43L1182,-40L1365,52Z" fill="#a9a9a9" stroke="#a9a9a9" stroke-width="1.51"/><path d="M1160,1123L1197,1335L1366,1182Z" fill="#474747" stroke="#474747" stroke-width="1.51"/><path d="M1182,-40L1238,146L1365,52Z" fill="#a8a8a8" stroke="#a8a8a8" stroke-width="1.51"/><path d="M1176,574L1350,644L1361,567Z" fill="#7e7e7e" stroke="#7e7e7e" stroke-width="1.51"/><path d="M1176,574L1183,673L1350,644Z" fill="#7e7e7e" stroke="#7e7e7e" stroke-width="1.51"/><path d="M1209,239L1141,431L1339,395Z" fill="#979797" stroke="#979797" stroke-width="1.51"/><path d="M1068,1270L862,1285L1197,1335Z" fill="#4a4a4a" stroke="#4a4a4a" stroke-width="1.51"/><path d="M1226,954L1160,1123L1310,1000Z" fill="#5b5b5b" stroke="#5b5b5b" stroke-width="1.51"/><path d="M474,-196L726,-198L858,-237Z" fill="#dadada" stroke="#dadada" stroke-width="1.51"/><path d="M1160,1123L1068,1270L1197,1335Z" fill="#4a4a4a" stroke="#4a4a4a" stroke-width="1.51"/><path d="M1077,969L1160,1123L1226,954Z" fill="#616161" stroke="#616161" stroke-width="1.51"/><path d="M1170,810L1085,852L1226,954Z" fill="#6e6e6e" stroke="#6e6e6e" stroke-width="1.51"/><path d="M1182,-40L1070,98L1238,146Z" fill="#aeaeae" stroke="#aeaeae" stroke-width="1.51"/><path d="M1054,213L1209,239L1238,146Z" fill="#a6a6a6" stroke="#a6a6a6" stroke-width="1.51"/><path d="M1070,98L1054,213L1238,146Z" fill="#acacac" stroke="#acacac" stroke-width="1.51"/><path d="M1149,-224L1048,-163L1182,-40Z" fill="#bababa" stroke="#bababa" stroke-width="1.51"/><path d="M1054,213L1141,431L1209,239Z" fill="#a1a1a1" stroke="#a1a1a1" stroke-width="1.51"/><path d="M1085,852L1077,969L1226,954Z" fill="#6c6c6c" stroke="#6c6c6c" stroke-width="1.51"/><path d="M1141,431L1086,554L1176,574Z" fill="#8d8d8d" stroke="#8d8d8d" stroke-width="1.51"/><path d="M1048,-163L1040,-77L1182,-40Z" fill="#bbbbbb" stroke="#bbbbbb" stroke-width="1.51"/><path d="M1068,1130L1068,1270L1160,1123Z" fill="#525252" stroke="#525252" stroke-width="1.51"/><path d="M1026,667L1170,810L1183,673Z" fill="#7d7d7d" stroke="#7d7d7d" stroke-width="1.51"/><path d="M1054,213L1017,442L1141,431Z" fill="#a0a0a0" stroke="#a0a0a0" stroke-width="1.51"/><path d="M858,-237L1048,-163L1149,-224Z" fill="#c3c3c3" stroke="#c3c3c3" stroke-width="1.51"/><path d="M1077,969L1068,1130L1160,1123Z" fill="#5d5d5d" stroke="#5d5d5d" stroke-width="1.51"/><path d="M1026,667L1085,852L1170,810Z" fill="#7a7a7a" stroke="#7a7a7a" stroke-width="1.51"/><path d="M1040,-77L1070,98L1182,-40Z" fill="#b6b6b6" stroke="#b6b6b6" stroke-width="1.51"/><path d="M1176,574L1086,554L1183,673Z" fill="#868686" stroke="#868686" stroke-width="1.51"/><path d="M1086,554L1026,667L1183,673Z" fill="#868686" stroke="#868686" stroke-width="1.51"/><path d="M1017,442L1086,554L1141,431Z" fill="#959595" stroke="#959595" stroke-width="1.51"/><path d="M923,-73L876,48L1040,-77Z" fill="#c1c1c1" stroke="#c1c1c1" stroke-width="1.51"/><path d="M910,382L1017,442L1054,213Z" fill="#a6a6a6" stroke="#a6a6a6" stroke-width="1.51"/><path d="M853,1121L862,1285L1068,1130Z" fill="#5a5a5a" stroke="#5a5a5a" stroke-width="1.51"/><path d="M1068,1130L862,1285L1068,1270Z" fill="#525252" stroke="#525252" stroke-width="1.51"/><path d="M1040,-77L876,48L1070,98Z" fill="#bbbbbb" stroke="#bbbbbb" stroke-width="1.51"/><path d="M853,1121L1068,1130L1077,969Z" fill="#626262" stroke="#626262" stroke-width="1.51"/><path d="M862,945L853,1121L1077,969Z" fill="#6e6e6e" stroke="#6e6e6e" stroke-width="1.51"/><path d="M1026,667L855,804L1085,852Z" fill="#808080" stroke="#808080" stroke-width="1.51"/><path d="M862,945L1077,969L1085,852Z" fill="#737373" stroke="#737373" stroke-width="1.51"/><path d="M855,804L862,945L1085,852Z" fill="#7b7b7b" stroke="#7b7b7b" stroke-width="1.51"/><path d="M888,535L1026,667L1086,554Z" fill="#8f8f8f" stroke="#8f8f8f" stroke-width="1.51"/><path d="M1017,442L888,535L1086,554Z" fill="#979797" stroke="#979797" stroke-width="1.51"/><path d="M876,48L1054,213L1070,98Z" fill="#b5b5b5" stroke="#b5b5b5" stroke-width="1.51"/><path d="M830,280L910,382L1054,213Z" fill="#aeaeae" stroke="#aeaeae" stroke-width="1.51"/><path d="M923,-73L1040,-77L1048,-163Z" fill="#c0c0c0" stroke="#c0c0c0" stroke-width="1.51"/><path d="M876,48L830,280L1054,213Z" fill="#b6b6b6" stroke="#b6b6b6" stroke-width="1.51"/><path d="M858,-237L923,-73L1048,-163Z" fill="#c6c6c6" stroke="#c6c6c6" stroke-width="1.51"/><path d="M834,682L855,804L1026,667Z" fill="#8a8a8a" stroke="#8a8a8a" stroke-width="1.51"/><path d="M888,535L834,682L1026,667Z" fill="#919191" stroke="#919191" stroke-width="1.51"/><path d="M910,382L888,535L1017,442Z" fill="#9f9f9f" stroke="#9f9f9f" stroke-width="1.51"/><path d="M452,1252L241,1282L592,1275Z" fill="#6c6c6c" stroke="#6c6c6c" stroke-width="1.51"/><path d="M474,-196L614,-177L726,-198Z" fill="#dddddd" stroke="#dddddd" stroke-width="1.51"/><path d="M726,-198L735,-55L858,-237Z" fill="#d1d1d1" stroke="#d1d1d1" stroke-width="1.51"/><path d="M761,224L830,280L876,48Z" fill="#bcbcbc" stroke="#bcbcbc" stroke-width="1.51"/><path d="M779,69L761,224L876,48Z" fill="#c2c2c2" stroke="#c2c2c2" stroke-width="1.51"/><path d="M769,587L834,682L888,535Z" fill="#999999" stroke="#999999" stroke-width="1.51"/><path d="M760,369L888,535L910,382Z" fill="#a7a7a7" stroke="#a7a7a7" stroke-width="1.51"/><path d="M735,-55L876,48L923,-73Z" fill="#c7c7c7" stroke="#c7c7c7" stroke-width="1.51"/><path d="M858,-237L735,-55L923,-73Z" fill="#cccccc" stroke="#cccccc" stroke-width="1.51"/><path d="M731,1034L853,1121L862,945Z" fill="#727272" stroke="#727272" stroke-width="1.51"/><path d="M830,280L760,369L910,382Z" fill="#b0b0b0" stroke="#b0b0b0" stroke-width="1.51"/><path d="M697,1148L769,1305L853,1121Z" fill="#626262" stroke="#626262" stroke-width="1.51"/><path d="M853,1121L769,1305L862,1285Z" fill="#5c5c5c" stroke="#5c5c5c" stroke-width="1.51"/><path d="M735,-55L779,69L876,48Z" fill="#c8c8c8" stroke="#c8c8c8" stroke-width="1.51"/><path d="M760,369L769,587L888,535Z" fill="#a4a4a4" stroke="#a4a4a4" stroke-width="1.51"/><path d="M769,587L760,635L834,682Z" fill="#999999" stroke="#999999" stroke-width="1.51"/><path d="M855,804L706,811L862,945Z" fill="#858585" stroke="#858585" stroke-width="1.51"/><path d="M834,682L706,811L855,804Z" fill="#8d8d8d" stroke="#8d8d8d" stroke-width="1.51"/><path d="M706,811L731,1034L862,945Z" fill="#818181" stroke="#818181" stroke-width="1.51"/><path d="M731,1034L697,1148L853,1121Z" fill="#6d6d6d" stroke="#6d6d6d" stroke-width="1.51"/><path d="M760,635L706,811L834,682Z" fill="#949494" stroke="#949494" stroke-width="1.51"/><path d="M760,369L614,548L769,587Z" fill="#a9a9a9" stroke="#a9a9a9" stroke-width="1.51"/><path d="M761,224L760,369L830,280Z" fill="#b8b8b8" stroke="#b8b8b8" stroke-width="1.51"/><path d="M706,811L560,873L731,1034Z" fill="#898989" stroke="#898989" stroke-width="1.51"/><path d="M560,873L623,1042L731,1034Z" fill="#838383" stroke="#838383" stroke-width="1.51"/><path d="M584,372L614,548L760,369Z" fill="#b4b4b4" stroke="#b4b4b4" stroke-width="1.51"/><path d="M617,649L706,811L760,635Z" fill="#999999" stroke="#999999" stroke-width="1.51"/><path d="M612,117L626,229L761,224Z" fill="#c6c6c6" stroke="#c6c6c6" stroke-width="1.51"/><path d="M626,229L760,369L761,224Z" fill="#bdbdbd" stroke="#bdbdbd" stroke-width="1.51"/><path d="M697,1148L592,1275L769,1305Z" fill="#636363" stroke="#636363" stroke-width="1.51"/><path d="M612,117L761,224L779,69Z" fill="#c6c6c6" stroke="#c6c6c6" stroke-width="1.51"/><path d="M735,-55L612,117L779,69Z" fill="#cccccc" stroke="#cccccc" stroke-width="1.51"/><path d="M626,229L584,372L760,369Z" fill="#bdbdbd" stroke="#bdbdbd" stroke-width="1.51"/><path d="M614,548L617,649L760,635Z" fill="#a3a3a3" stroke="#a3a3a3" stroke-width="1.51"/><path d="M614,548L760,635L769,587Z" fill="#a1a1a1" stroke="#a1a1a1" stroke-width="1.51"/><path d="M726,-198L614,-177L735,-55Z" fill="#d7d7d7" stroke="#d7d7d7" stroke-width="1.51"/><path d="M623,1042L697,1148L731,1034Z" fill="#757575" stroke="#757575" stroke-width="1.51"/><path d="M614,-177L590,-91L735,-55Z" fill="#d8d8d8" stroke="#d8d8d8" stroke-width="1.51"/><path d="M590,-91L612,117L735,-55Z" fill="#d3d3d3" stroke="#d3d3d3" stroke-width="1.51"/><path d="M623,1042L597,1114L697,1148Z" fill="#747474" stroke="#747474" stroke-width="1.51"/><path d="M597,1114L592,1275L697,1148Z" fill="#6c6c6c" stroke="#6c6c6c" stroke-width="1.51"/><path d="M617,649L560,873L706,811Z" fill="#969696" stroke="#969696" stroke-width="1.51"/><path d="M99,-254L238,-173L474,-196Z" fill="#ececec" stroke="#ececec" stroke-width="1.51"/><path d="M453,-68L430,45L590,-91Z" fill="#dcdcdc" stroke="#dcdcdc" stroke-width="1.51"/><path d="M488,1164L592,1275L597,1114Z" fill="#6e6e6e" stroke="#6e6e6e" stroke-width="1.51"/><path d="M590,-91L430,45L612,117Z" fill="#d6d6d6" stroke="#d6d6d6" stroke-width="1.51"/><path d="M584,372L476,514L614,548Z" fill="#b4b4b4" stroke="#b4b4b4" stroke-width="1.51"/><path d="M614,548L476,514L617,649Z" fill="#ababab" stroke="#ababab" stroke-width="1.51"/><path d="M445,812L560,873L617,649Z" fill="#9a9a9a" stroke="#9a9a9a" stroke-width="1.51"/><path d="M396,681L445,812L617,649Z" fill="#a1a1a1" stroke="#a1a1a1" stroke-width="1.51"/><path d="M560,873L467,997L623,1042Z" fill="#888888" stroke="#888888" stroke-width="1.51"/><path d="M612,117L390,242L626,229Z" fill="#cccccc" stroke="#cccccc" stroke-width="1.51"/><path d="M390,242L584,372L626,229Z" fill="#c6c6c6" stroke="#c6c6c6" stroke-width="1.51"/><path d="M467,997L597,1114L623,1042Z" fill="#7d7d7d" stroke="#7d7d7d" stroke-width="1.51"/><path d="M430,45L390,242L612,117Z" fill="#d3d3d3" stroke="#d3d3d3" stroke-width="1.51"/><path d="M474,-196L590,-91L614,-177Z" fill="#dedede" stroke="#dedede" stroke-width="1.51"/><path d="M476,514L396,681L617,649Z" fill="#aaaaaa" stroke="#aaaaaa" stroke-width="1.51"/><path d="M390,242L387,355L584,372Z" fill="#c7c7c7" stroke="#c7c7c7" stroke-width="1.51"/><path d="M488,1164L452,1252L592,1275Z" fill="#6c6c6c" stroke="#6c6c6c" stroke-width="1.51"/><path d="M467,997L488,1164L597,1114Z" fill="#7a7a7a" stroke="#7a7a7a" stroke-width="1.51"/><path d="M474,-196L453,-68L590,-91Z" fill="#dfdfdf" stroke="#dfdfdf" stroke-width="1.51"/><path d="M387,355L476,514L584,372Z" fill="#bdbdbd" stroke="#bdbdbd" stroke-width="1.51"/><path d="M445,812L467,997L560,873Z" fill="#929292" stroke="#929292" stroke-width="1.51"/><path d="M319,192L390,242L430,45Z" fill="#d6d6d6" stroke="#d6d6d6" stroke-width="1.51"/><path d="M445,812L268,1023L467,997Z" fill="#929292" stroke="#929292" stroke-width="1.51"/><path d="M318,-113L453,-68L474,-196Z" fill="#e3e3e3" stroke="#e3e3e3" stroke-width="1.51"/><path d="M286,507L396,681L476,514Z" fill="#b3b3b3" stroke="#b3b3b3" stroke-width="1.51"/><path d="M387,355L286,507L476,514Z" fill="#bebebe" stroke="#bebebe" stroke-width="1.51"/><path d="M250,1171L452,1252L488,1164Z" fill="#747474" stroke="#747474" stroke-width="1.51"/><path d="M467,997L268,1023L488,1164Z" fill="#838383" stroke="#838383" stroke-width="1.51"/><path d="M268,1023L250,1171L488,1164Z" fill="#7e7e7e" stroke="#7e7e7e" stroke-width="1.51"/><path d="M262,799L268,1023L445,812Z" fill="#9b9b9b" stroke="#9b9b9b" stroke-width="1.51"/><path d="M238,-173L318,-113L474,-196Z" fill="#e8e8e8" stroke="#e8e8e8" stroke-width="1.51"/><path d="M275,418L286,507L387,355Z" fill="#c3c3c3" stroke="#c3c3c3" stroke-width="1.51"/><path d="M396,681L262,799L445,812Z" fill="#a2a2a2" stroke="#a2a2a2" stroke-width="1.51"/><path d="M250,1171L241,1282L452,1252Z" fill="#737373" stroke="#737373" stroke-width="1.51"/><path d="M318,-113L430,45L453,-68Z" fill="#e0e0e0" stroke="#e0e0e0" stroke-width="1.51"/><path d="M252,103L319,192L430,45Z" fill="#dbdbdb" stroke="#dbdbdb" stroke-width="1.51"/><path d="M-48,1283L-116,1326L241,1282Z" fill="#777777" stroke="#777777" stroke-width="1.51"/><path d="M286,507L263,672L396,681Z" fill="#b1b1b1" stroke="#b1b1b1" stroke-width="1.51"/><path d="M318,-113L252,103L430,45Z" fill="#e0e0e0" stroke="#e0e0e0" stroke-width="1.51"/><path d="M319,192L182,284L387,355Z" fill="#d1d1d1" stroke="#d1d1d1" stroke-width="1.51"/><path d="M182,284L275,418L387,355Z" fill="#cccccc" stroke="#cccccc" stroke-width="1.51"/><path d="M319,192L387,355L390,242Z" fill="#cfcfcf" stroke="#cfcfcf" stroke-width="1.51"/><path d="M263,672L262,799L396,681Z" fill="#a9a9a9" stroke="#a9a9a9" stroke-width="1.51"/><path d="M163,1243L-48,1283L241,1282Z" fill="#777777" stroke="#777777" stroke-width="1.51"/><path d="M262,799L118,796L268,1023Z" fill="#9f9f9f" stroke="#9f9f9f" stroke-width="1.51"/><path d="M118,796L112,1031L268,1023Z" fill="#9a9a9a" stroke="#9a9a9a" stroke-width="1.51"/><path d="M182,284L180,367L275,418Z" fill="#cecece" stroke="#cecece" stroke-width="1.51"/><path d="M190,570L263,672L286,507Z" fill="#b8b8b8" stroke="#b8b8b8" stroke-width="1.51"/><path d="M161,-53L252,103L318,-113Z" fill="#e6e6e6" stroke="#e6e6e6" stroke-width="1.51"/><path d="M238,-173L161,-53L318,-113Z" fill="#eaeaea" stroke="#eaeaea" stroke-width="1.51"/><path d="M252,103L182,284L319,192Z" fill="#d8d8d8" stroke="#d8d8d8" stroke-width="1.51"/><path d="M164,98L182,284L252,103Z" fill="#dcdcdc" stroke="#dcdcdc" stroke-width="1.51"/><path d="M161,-53L164,98L252,103Z" fill="#e4e4e4" stroke="#e4e4e4" stroke-width="1.51"/><path d="M118,796L262,799L263,672Z" fill="#a9a9a9" stroke="#a9a9a9" stroke-width="1.51"/><path d="M158,1144L250,1171L268,1023Z" fill="#838383" stroke="#838383" stroke-width="1.51"/><path d="M180,367L190,570L275,418Z" fill="#c5c5c5" stroke="#c5c5c5" stroke-width="1.51"/><path d="M275,418L190,570L286,507Z" fill="#bfbfbf" stroke="#bfbfbf" stroke-width="1.51"/><path d="M163,1243L241,1282L250,1171Z" fill="#777777" stroke="#777777" stroke-width="1.51"/><path d="M129,648L118,796L263,672Z" fill="#afafaf" stroke="#afafaf" stroke-width="1.51"/><path d="M112,1031L158,1144L268,1023Z" fill="#8b8b8b" stroke="#8b8b8b" stroke-width="1.51"/><path d="M190,570L129,648L263,672Z" fill="#b5b5b5" stroke="#b5b5b5" stroke-width="1.51"/><path d="M158,1144L163,1243L250,1171Z" fill="#7c7c7c" stroke="#7c7c7c" stroke-width="1.51"/><path d="M99,-254L161,-53L238,-173Z" fill="#efefef" stroke="#efefef" stroke-width="1.51"/><path d="M37,1030L112,1031L118,796Z" fill="#9c9c9c" stroke="#9c9c9c" stroke-width="1.51"/><path d="M99,-254L30,-48L161,-53Z" fill="#f0f0f0" stroke="#f0f0f0" stroke-width="1.51"/><path d="M161,-53L30,-48L164,98Z" fill="#e9e9e9" stroke="#e9e9e9" stroke-width="1.51"/><path d="M26,336L-21,566L180,367Z" fill="#cdcdcd" stroke="#cdcdcd" stroke-width="1.51"/><path d="M164,98L-9,223L182,284Z" fill="#dddddd" stroke="#dddddd" stroke-width="1.51"/><path d="M26,336L180,367L182,284Z" fill="#d4d4d4" stroke="#d4d4d4" stroke-width="1.51"/><path d="M180,367L-21,566L190,570Z" fill="#c4c4c4" stroke="#c4c4c4" stroke-width="1.51"/><path d="M-21,566L129,648L190,570Z" fill="#bcbcbc" stroke="#bcbcbc" stroke-width="1.51"/><path d="M10,-235L30,-48L99,-254Z" fill="#f4f4f4" stroke="#f4f4f4" stroke-width="1.51"/><path d="M-9,223L26,336L182,284Z" fill="#dadada" stroke="#dadada" stroke-width="1.51"/><path d="M-70,847L37,1030L118,796Z" fill="#a4a4a4" stroke="#a4a4a4" stroke-width="1.51"/><path d="M-58,1100L-48,1283L158,1144Z" fill="#838383" stroke="#838383" stroke-width="1.51"/><path d="M158,1144L-48,1283L163,1243Z" fill="#7c7c7c" stroke="#7c7c7c" stroke-width="1.51"/><path d="M30,-48L-43,44L164,98Z" fill="#eaeaea" stroke="#eaeaea" stroke-width="1.51"/><path d="M-43,44L-9,223L164,98Z" fill="#e5e5e5" stroke="#e5e5e5" stroke-width="1.51"/><path d="M112,1031L37,1030L158,1144Z" fill="#8d8d8d" stroke="#8d8d8d" stroke-width="1.51"/><path d="M-14,685L118,796L129,648Z" fill="#b2b2b2" stroke="#b2b2b2" stroke-width="1.51"/><path d="M37,1030L-58,1100L158,1144Z" fill="#8c8c8c" stroke="#8c8c8c" stroke-width="1.51"/><path d="M-21,566L-14,685L129,648Z" fill="#bababa" stroke="#bababa" stroke-width="1.51"/><path d="M-14,685L-70,847L118,796Z" fill="#aeaeae" stroke="#aeaeae" stroke-width="1.51"/><path d="M-119,489L-21,566L26,336Z" fill="#cccccc" stroke="#cccccc" stroke-width="1.51"/><path d="M-58,1100L-128,1154L-48,1283Z" fill="#848484" stroke="#848484" stroke-width="1.51"/><path d="M-163,400L-119,489L26,336Z" fill="#d2d2d2" stroke="#d2d2d2" stroke-width="1.51"/><path d="M10,-235L-113,-61L30,-48Z" fill="#f3f3f3" stroke="#f3f3f3" stroke-width="1.51"/><path d="M-116,945L-58,1100L37,1030Z" fill="#969696" stroke="#969696" stroke-width="1.51"/><path d="M-70,847L-116,945L37,1030Z" fill="#a1a1a1" stroke="#a1a1a1" stroke-width="1.51"/><path d="M-183,-186L-113,-61L10,-235Z" fill="#f7f7f7" stroke="#f7f7f7" stroke-width="1.51"/><path d="M-113,-61L-43,44L30,-48Z" fill="#efefef" stroke="#efefef" stroke-width="1.51"/><path d="M-43,44L-172,103L-9,223Z" fill="#e8e8e8" stroke="#e8e8e8" stroke-width="1.51"/><path d="M-158,214L-163,400L-9,223Z" fill="#dedede" stroke="#dedede" stroke-width="1.51"/><path d="M-9,223L-163,400L26,336Z" fill="#dadada" stroke="#dadada" stroke-width="1.51"/><path d="M-172,103L-158,214L-9,223Z" fill="#e5e5e5" stroke="#e5e5e5" stroke-width="1.51"/><path d="M-21,566L-163,678L-14,685Z" fill="#bbbbbb" stroke="#bbbbbb" stroke-width="1.51"/><path d="M-163,678L-70,847L-14,685Z" fill="#b4b4b4" stroke="#b4b4b4" stroke-width="1.51"/><path d="M-119,489L-163,678L-21,566Z" fill="#c2c2c2" stroke="#c2c2c2" stroke-width="1.51"/><path d="M-128,1154L-116,1326L-48,1283Z" fill="#7e7e7e" stroke="#7e7e7e" stroke-width="1.51"/><path d="M-113,-61L-172,103L-43,44Z" fill="#eeeeee" stroke="#eeeeee" stroke-width="1.51"/><path d="M-116,945L-128,1154L-58,1100Z" fill="#929292" stroke="#929292" stroke-width="1.51"/><path d="M-161,892L-116,945L-70,847Z" fill="#a6a6a6" stroke="#a6a6a6" stroke-width="1.51"/><path d="M-163,678L-161,892L-70,847Z" fill="#afafaf" stroke="#afafaf" stroke-width="1.51"/><path d="M-161,892L-128,1154L-116,945Z" fill="#9c9c9c" stroke="#9c9c9c" stroke-width="1.51"/><path d="M-128,1154L-161,892L-116,1326Z" fill="#8c8c8c" stroke="#8c8c8c" stroke-width="1.51"/><path d="M-183,-186L-172,103L-113,-61Z" fill="#f4f4f4" stroke="#f4f4f4" stroke-width="1.51"/><path d="M-163,400L-163,678L-119,489Z" fill="#c8c8c8" stroke="#c8c8c8" stroke-width="1.51"/><path d="M-172,103L-163,400L-158,214Z" fill="#e2e2e2" stroke="#e2e2e2" stroke-width="1.51"/><path d="M-172,103L-183,-186L-163,678Z" fill="#e5e5e5" stroke="#e5e5e5" stroke-width="1.51"/><path d="M-163,400L-172,103L-163,678Z" fill="#d6d6d6" stroke="#d6d6d6" stroke-width="1.51"/></svg>